<svg xmlns="http://www.w3.org/2000/svg" viewBox="0 0 9.665 12.482" fill="#fff"><path d="M4.042 8.142l-.028.096c-.459 1.796-.51 2.195-.98 3.03a9.391 9.391 0 01-.759 1.132c-.032.04-.06.093-.124.08-.07-.015-.074-.077-.082-.132a9.677 9.677 0 01-.1-1.644c.025-.718.113-.965 1.039-4.856a.266.266 0 00-.021-.163c-.222-.597-.266-1.203-.072-1.818.418-1.327 1.923-1.429 2.186-.334.162.678-.266 1.564-.595 2.874-.273 1.081 1 1.85 2.087 1.06C7.596 6.74 7.985 4.997 7.911 3.76 7.766 1.295 5.063.762 3.348 1.556 1.383 2.465.936 4.901 1.823 6.015c.113.142.2.228.162.372-.057.223-.107.447-.169.67-.045.164-.184.224-.35.156-.328-.132-.6-.34-.822-.615-.753-.933-.969-2.78.028-4.342C1.776.525 3.83-.176 5.704.037c2.24.254 3.655 1.785 3.92 3.52.121.791.034 2.741-1.076 4.12-1.277 1.583-3.347 1.688-4.302.716-.073-.075-.132-.162-.204-.25"/></svg>
